<svg xmlns="http://www.w3.org/2000/svg" viewBox="0 0 858 636"><path fill="#F8FAFB" d="M615 637H1V1h858v636H615M154.032 367.967c-.01 42.642-.03 85.283-.029 127.924.001 25.196 17.009 42.105 42.336 42.107 64.462.005 128.924.002 193.386.002 78.454 0 156.908.017 235.361-.01 23.549-.01 40.853-17.417 40.91-41.026.022-8.828.015-17.656.002-26.485-.05-34.476-.107-68.952-.018-104.363.007-58.956.025-117.913.015-176.87-.005-26.508-16.832-43.228-43.474-43.244-36.14-.022-72.28-.031-108.503-.973-.013-5.662.062-11.327-.054-16.987-.608-29.527-24.449-53.654-53.966-53.944-33.307-.327-66.62-.275-99.928-.012-24.684.196-46.494 17.116-51.924 41.149-2.238 9.904-1.585 20.461-3.171 30.757-35.975.003-71.95-.047-107.925.075-4.449.016-9.055.376-13.314 1.561-18.58 5.172-29.677 20.2-29.712 40.052-.076 43.136-.039 86.273-.017 129.41.009 16.651.102 33.303.025 50.877z"/><path fill="#97675C" d="M514.101 145.956c36.14.015 72.28.024 108.42.046 26.642.016 43.47 16.736 43.474 43.244.01 58.957-.008 117.914-.325 177.578-3.745 12.63-14.683 19.598-26.609 19.33-22.957-.517-45.934-.134-68.961-.591-.072-10.602-.055-20.737-.11-30.87-.052-9.701-6.762-16.677-15.963-16.688-9.21-.012-15.948 6.958-16.02 16.634-.08 10.463-.112 20.928-.624 31.382-88.047-.004-175.636.003-263.283-.458-.072-10.602-.054-20.737-.11-30.87-.052-9.703-6.762-16.677-15.963-16.688-9.21-.012-15.947 6.957-16.02 16.634-.08 10.463-.112 20.928-.624 31.382-21.376-.014-42.295.061-63.211-.11-3.046-.024-6.196-.904-9.1-1.941-8.018-2.864-11.926-9.53-14.909-16.926-.054-16.651-.147-33.303-.156-49.954-.022-43.137-.059-86.274.017-129.41.035-19.852 11.132-34.88 29.712-40.052 4.259-1.185 8.865-1.545 13.314-1.56 35.975-.123 71.95-.073 108.862-.08 11.354-.013 21.77-.023 32.65-.013 48.087.006 95.713-.007 143.813-.005 10.892.004 21.309-.005 31.726-.014M420.5 362.002c11.983-.001 23.966.037 35.949-.02 5.74-.026 9.51-3.287 9.5-7.996-.01-4.71-3.776-7.963-9.529-7.97-30.956-.034-61.912-.024-92.868.011-1.468.002-3.094.06-4.371.668-3.62 1.724-5.94 4.637-4.927 8.79 1.064 4.366 4.207 6.534 8.826 6.526 18.807-.031 37.613-.01 57.42-.01z"/><path fill="#795D62" d="M570.158 386.03c22.969-.01 45.946-.393 68.903.123 11.926.269 22.864-6.7 26.537-18.862.293 34.236.35 68.712.4 103.188.013 8.829.02 17.657-.002 26.485-.057 23.61-17.361 41.017-40.91 41.025-78.453.028-156.907.01-235.36.011-64.463 0-128.925.003-193.387-.002-25.327-.002-42.335-16.911-42.336-42.107-.001-42.641.018-85.282.094-128.385 3.05 6.934 6.957 13.6 14.974 16.464 2.905 1.037 6.055 1.917 9.1 1.942 20.917.17 41.836.095 63.273.564.585 4.152.65 7.838.653 11.99-.07 12.288-.226 24.114-.036 35.935.143 8.936 7.366 15.691 16.156 15.587 8.556-.101 15.595-6.805 15.715-15.522.167-12.151-.044-24.308-.043-36.92.122-4.144.196-7.83.27-11.515 87.588-.007 175.177-.014 263.285.445.585 4.152.65 7.838.653 11.99-.07 12.288-.226 24.114-.036 35.935.143 8.936 7.366 15.691 16.156 15.587 8.557-.101 15.595-6.805 15.715-15.522.167-12.151-.044-24.308-.043-36.92.122-4.144.196-7.83.27-11.515z"/><path fill="#795E63" d="M338.1 145.956c-10.418.01-20.834.019-31.726.014.187-10.274-.466-20.83 1.772-30.735 5.43-24.033 27.24-40.953 51.924-41.149 33.308-.263 66.621-.315 99.928.012 29.517.29 53.358 24.417 53.966 53.944.116 5.66.04 11.325.096 17.45-10.376.473-20.793.482-31.643.014-.436-5.81-.301-11.147-.465-16.474-.402-13.031-9.908-22.857-22.924-22.94a7845.748 7845.748 0 00-97.987-.005c-13.032.08-22.586 9.865-22.985 22.876-.173 5.658.018 11.328.043 16.993z"/><path fill="#F8FAFB" d="M338.561 145.975c-.487-5.684-.678-11.354-.505-17.012.399-13.01 9.953-22.796 22.985-22.876 32.661-.199 65.326-.204 97.987.005 13.016.083 22.522 9.909 22.924 22.94.164 5.327.03 10.664-.01 16.46-47.667.476-95.293.489-143.38.483z"/><path fill="#F8D347" d="M274.1 385.563c-.015 4.153-.089 7.84-.444 12.225-1.838 5.736-5.037 9.316-9.974 11.144-9.073 3.36-16.768-.599-21.521-10.932a877.465 877.465 0 00-.259-11.514c-.007-10.92.025-21.384.104-31.847.074-9.677 6.811-16.646 16.02-16.634 9.202.011 15.912 6.985 15.965 16.687.055 10.134.037 20.269.109 30.87zM570.1 385.563c-.015 4.153-.089 7.84-.444 12.225-1.838 5.736-5.037 9.316-9.974 11.144-9.073 3.36-16.767-.598-21.522-10.932a876.622 876.622 0 00-.258-11.514c-.007-10.92.025-21.384.104-31.847.073-9.676 6.81-16.646 16.02-16.634 9.202.011 15.912 6.987 15.965 16.687.054 10.134.037 20.269.109 30.87zM420 362.002c-19.307-.002-38.113-.022-56.92.01-4.62.007-7.762-2.161-8.826-6.528-1.012-4.152 1.307-7.065 4.927-8.789 1.277-.608 2.903-.666 4.37-.668 30.957-.035 61.913-.045 92.87-.01 5.752.006 9.518 3.26 9.528 7.969.01 4.71-3.76 7.97-9.5 7.997-11.983.056-23.966.018-36.449.019z"/><path fill="#F09B38" d="M242.097 398.465c4.817 9.868 12.512 13.827 21.585 10.467 4.937-1.828 8.136-5.408 9.925-10.685.281 11.911.492 24.068.325 36.219-.12 8.717-7.159 15.42-15.715 15.522-8.79.104-16.013-6.651-16.156-15.587-.19-11.821-.034-23.647.036-35.936zM538.097 398.465c4.818 9.869 12.512 13.827 21.585 10.467 4.937-1.828 8.136-5.408 9.925-10.685.281 11.911.492 24.068.325 36.219-.12 8.717-7.158 15.42-15.715 15.522-8.79.104-16.013-6.651-16.156-15.587-.19-11.82-.034-23.647.036-35.936z"/></svg>